<svg id="Grupo_23" data-name="Grupo 23" xmlns="http://www.w3.org/2000/svg" xmlns:xlink="http://www.w3.org/1999/xlink" width="120.778" height="131.715" viewBox="0 0 120.778 131.715">
  <defs>
    <clipPath id="clip-path">
      <rect id="Rect치ngulo_67" data-name="Rect치ngulo 67" width="120.778" height="131.715" fill="#707070"/>
    </clipPath>
  </defs>
  <g id="Grupo_22" data-name="Grupo 22" clip-path="url(#clip-path)">
    <path id="Trazado_61" data-name="Trazado 61" d="M22.439,73.706c0,3.787-2.174,4.909-3.3,5.049v1.4c1.052.14,3.3,1.262,3.3,5.049V97.688c0,7.012-1.4,11.219-7.012,11.219H.351A.331.331,0,0,1,0,108.556V53.16a.331.331,0,0,1,.351-.35H15.427c5.61,0,7.012,4.207,7.012,11.219ZM9.116,74.9h4.207V61.224H9.116Zm4.207,9.116H9.116v16.478h4.207Z" transform="translate(0 -39.17)" fill="#707070"/>
    <path id="Trazado_62" data-name="Trazado 62" d="M119.675,85.066v15.427h8.765a.331.331,0,0,1,.351.351v7.713a.331.331,0,0,1-.351.351H110.91a.331.331,0,0,1-.351-.351V53.16a.331.331,0,0,1,.351-.35h16.829a.331.331,0,0,1,.351.35v7.713a.331.331,0,0,1-.351.351h-8.064V76.651h6.661a.331.331,0,0,1,.351.351v7.713a.331.331,0,0,1-.351.351Z" transform="translate(-82.003 -39.17)" fill="#707070"/>
    <path id="Trazado_63" data-name="Trazado 63" d="M.354,347.225A.335.335,0,0,1,0,346.871v-55.96a.335.335,0,0,1,.354-.354H13.1c.213,0,.354.071.354.354l2.054,22.313H16.93l2.054-22.313c0-.283.142-.354.354-.354H32.089a.334.334,0,0,1,.354.354v55.96a.334.334,0,0,1-.354.354h-8.5a.334.334,0,0,1-.354-.354V316.057H21.817l-2.762,30.813c0,.283-.142.354-.354.354H13.742c-.213,0-.354-.071-.354-.354l-2.763-30.813H9.209v30.813a.335.335,0,0,1-.354.354Z" transform="translate(0 -215.51)" fill="#707070"/>
    <path id="Rect치ngulo_66" data-name="Rect치ngulo 66" d="M1.372,0H7.839a1.37,1.37,0,0,1,1.37,1.37V55.3a1.372,1.372,0,0,1-1.372,1.372H1.372A1.372,1.372,0,0,1,0,55.3V1.372A1.372,1.372,0,0,1,1.372,0Z" transform="translate(38.417 75.047)" fill="#707070"/>
    <path id="Trazado_64" data-name="Trazado 64" d="M207.874,347.225a.335.335,0,0,1-.354-.354v-55.96a.335.335,0,0,1,.354-.354h8.5a.334.334,0,0,1,.354.354v47.814h8.146a.335.335,0,0,1,.354.354v7.792a.335.335,0,0,1-.354.354Z" transform="translate(-153.921 -215.51)" fill="#707070"/>
    <path id="Trazado_65" data-name="Trazado 65" d="M300.083,323.141v15.584h8.854a.335.335,0,0,1,.354.354v7.792a.335.335,0,0,1-.354.354H291.228a.335.335,0,0,1-.354-.354v-55.96a.335.335,0,0,1,.354-.354h17a.335.335,0,0,1,.354.354V298.7a.335.335,0,0,1-.354.354h-8.146v15.584h6.729a.335.335,0,0,1,.354.354v7.792a.335.335,0,0,1-.354.354Z" transform="translate(-215.746 -215.51)" fill="#707070"/>
    <path id="Trazado_66" data-name="Trazado 66" d="M393.314,299.057h-4.25v10.271a2.67,2.67,0,0,0,1.417,2.833l5.667,2.834c4.321,2.125,6.375,4.675,6.375,10.413v10.484c0,7.083-1.417,11.334-7.084,11.334h-8.5c-5.667,0-7.084-4.25-7.084-11.334v-11.4a.334.334,0,0,1,.354-.354h8.5a.335.335,0,0,1,.354.354v14.238h4.25v-13.1a2.672,2.672,0,0,0-1.417-2.834l-5.667-2.833c-4.321-2.125-6.375-4.675-6.375-10.413v-7.65c0-7.083,1.417-11.333,7.084-11.333h8.5c5.667,0,7.084,4.25,7.084,11.333v8.571a.335.335,0,0,1-.354.354h-8.5a.334.334,0,0,1-.354-.354Z" transform="translate(-281.744 -215.51)" fill="#707070"/>
    <path id="Trazado_67" data-name="Trazado 67" d="M230.036,0h-8.078a1.1,1.1,0,0,0-1.1,1.1V35.144L215.1,23.958v-9.22a1.1,1.1,0,0,0-1.1-1.1h-8.078a1.1,1.1,0,0,0-1.1,1.1V68.288a1.1,1.1,0,0,0,1.1,1.1H214a1.1,1.1,0,0,0,1.1-1.1V34.661l5.759,11.186v8.8a1.1,1.1,0,0,0,1.1,1.1h8.078a1.1,1.1,0,0,0,1.1-1.1V1.1a1.1,1.1,0,0,0-1.1-1.1" transform="translate(-151.924)" fill="#707070"/>
    <path id="Trazado_68" data-name="Trazado 68" d="M152.737,9.331V3.8h-2.183V2.51H156.5V3.8h-2.183V9.331Z" transform="translate(-111.668 -1.862)" fill="#707070"/>
    <path id="Trazado_69" data-name="Trazado 69" d="M185.972,9.331h-1.579V2.51h1.579Zm3.215-2.8h-3.332V5.2h3.332ZM189.07,2.51h1.579V9.331H189.07Z" transform="translate(-136.767 -1.862)" fill="#707070"/>
    <path id="Trazado_70" data-name="Trazado 70" d="M223.99,8.064H227.7V9.331h-5.281V2.51h5.155V3.777H223.99Zm-.117-2.807h3.284V6.486h-3.284Z" transform="translate(-164.973 -1.862)" fill="#707070"/>
    <path id="Trazado_71" data-name="Trazado 71" d="M263.912,250.156v-5.893h2.551a3.318,3.318,0,0,1,1.364.257,2,2,0,0,1,.884.737,2.244,2.244,0,0,1,0,2.281,2,2,0,0,1-.884.737,3.313,3.313,0,0,1-1.364.257H264.67l.606-.615v2.239Zm1.364-2.088-.606-.648h1.717a1.409,1.409,0,0,0,.943-.269.937.937,0,0,0,.311-.749.948.948,0,0,0-.311-.758,1.411,1.411,0,0,0-.943-.269H264.67l.606-.648Z" transform="translate(-195.747 -181.173)" fill="#707070"/>
    <path id="Trazado_72" data-name="Trazado 72" d="M296.087,249.967a3.582,3.582,0,0,1-1.292-.228,3.057,3.057,0,0,1-1.027-.64,2.923,2.923,0,0,1-.674-.968,3.185,3.185,0,0,1,0-2.425,2.885,2.885,0,0,1,.678-.968,3.116,3.116,0,0,1,1.027-.64,3.728,3.728,0,0,1,2.564,0,3.083,3.083,0,0,1,1.018.64,3.076,3.076,0,0,1,.678,3.4,2.911,2.911,0,0,1-.678.968,3.11,3.11,0,0,1-1.018.635,3.493,3.493,0,0,1-1.275.228m-.009-1.162a1.924,1.924,0,0,0,.728-.135,1.747,1.747,0,0,0,.585-.387,1.774,1.774,0,0,0,.392-.6,2.182,2.182,0,0,0,0-1.532,1.8,1.8,0,0,0-.387-.6,1.7,1.7,0,0,0-.585-.387,1.953,1.953,0,0,0-.732-.135,1.919,1.919,0,0,0-.728.135,1.742,1.742,0,0,0-.585.387,1.767,1.767,0,0,0-.392.6,2.169,2.169,0,0,0,0,1.528,1.794,1.794,0,0,0,.387.6,1.694,1.694,0,0,0,.585.387,1.955,1.955,0,0,0,.732.135" transform="translate(-217.215 -180.883)" fill="#707070"/>
    <path id="Trazado_73" data-name="Trazado 73" d="M328.315,250.156v-5.893h2.677a3.734,3.734,0,0,1,1.692.366,2.8,2.8,0,0,1,1.145,1.023,3.138,3.138,0,0,1,0,3.111,2.784,2.784,0,0,1-1.145,1.027,3.737,3.737,0,0,1-1.692.366Zm1.364-1.12h1.246a2.211,2.211,0,0,0,1.023-.223,1.624,1.624,0,0,0,.674-.636,2.084,2.084,0,0,0,0-1.941,1.629,1.629,0,0,0-.674-.631,2.208,2.208,0,0,0-1.023-.223h-1.246Z" transform="translate(-243.516 -181.173)" fill="#707070"/>
    <path id="Trazado_74" data-name="Trazado 74" d="M363.512,249.967a3.53,3.53,0,0,1-1.267-.223,2.942,2.942,0,0,1-1.684-1.6,3.225,3.225,0,0,1,0-2.441,2.916,2.916,0,0,1,.674-.968,3.028,3.028,0,0,1,1.014-.636,3.516,3.516,0,0,1,1.271-.223,3.48,3.48,0,0,1,1.385.265,2.7,2.7,0,0,1,1.04.778l-.876.808a2.053,2.053,0,0,0-.673-.518,1.892,1.892,0,0,0-.808-.173,2.068,2.068,0,0,0-.758.135,1.716,1.716,0,0,0-.6.387,1.767,1.767,0,0,0-.392.6,2.181,2.181,0,0,0,0,1.532,1.766,1.766,0,0,0,.392.6,1.71,1.71,0,0,0,.6.387,2.068,2.068,0,0,0,.758.135,1.891,1.891,0,0,0,.808-.173,2,2,0,0,0,.673-.526l.876.808a2.734,2.734,0,0,1-1.04.783,3.458,3.458,0,0,1-1.393.27" transform="translate(-267.255 -180.883)" fill="#707070"/>
    <path id="Trazado_75" data-name="Trazado 75" d="M388.709,250.155l2.626-5.893h1.347l2.635,5.893h-1.431l-2.155-5.2h.539l-2.163,5.2Zm1.313-1.263.362-1.035h3.031l.37,1.035Z" transform="translate(-288.311 -181.173)" fill="#707070"/>
    <path id="Trazado_76" data-name="Trazado 76" d="M423.8,249.967a4.815,4.815,0,0,1-1.355-.189,3.167,3.167,0,0,1-1.044-.493l.463-1.027a3.38,3.38,0,0,0,.9.442,3.3,3.3,0,0,0,1.048.173,2.187,2.187,0,0,0,.652-.08.766.766,0,0,0,.366-.223.5.5,0,0,0,.118-.328.446.446,0,0,0-.185-.375,1.53,1.53,0,0,0-.488-.227q-.3-.088-.669-.168t-.732-.2a3.075,3.075,0,0,1-.669-.3,1.485,1.485,0,0,1-.492-.488,1.438,1.438,0,0,1-.189-.774,1.645,1.645,0,0,1,.273-.922,1.875,1.875,0,0,1,.825-.665,3.382,3.382,0,0,1,1.385-.248,4.631,4.631,0,0,1,1.095.13,3.162,3.162,0,0,1,.951.392l-.421,1.035a3.6,3.6,0,0,0-.825-.349,3.039,3.039,0,0,0-.808-.113,1.913,1.913,0,0,0-.648.092.765.765,0,0,0-.362.24.557.557,0,0,0-.11.341.436.436,0,0,0,.185.366,1.454,1.454,0,0,0,.488.223q.3.084.669.168t.732.194a2.836,2.836,0,0,1,.669.294,1.493,1.493,0,0,1,.492.488,1.42,1.42,0,0,1,.19.766,1.593,1.593,0,0,1-.278.909,1.94,1.94,0,0,1-.829.665,3.348,3.348,0,0,1-1.393.253" transform="translate(-312.559 -180.883)" fill="#707070"/>
    <path id="Trazado_77" data-name="Trazado 77" d="M449.49,250.156v-4.782H447.6v-1.111h5.135v1.111h-1.886v4.782Z" transform="translate(-331.995 -181.173)" fill="#707070"/>
  </g>
</svg>
