<svg id="Grupo_15" data-name="Grupo 15" xmlns="http://www.w3.org/2000/svg" xmlns:xlink="http://www.w3.org/1999/xlink" width="192" height="65.291" viewBox="0 0 192 65.291">
  <defs>
    <clipPath id="clip-path">
      <rect id="Rect치ngulo_41" data-name="Rect치ngulo 41" width="192" height="65.291" fill="none"/>
    </clipPath>
  </defs>
  <g id="Grupo_14" data-name="Grupo 14" clip-path="url(#clip-path)">
    <path id="Trazado_36" data-name="Trazado 36" d="M20.934,72.3c0,3.533-2.028,4.579-3.075,4.71v1.308c.981.131,3.075,1.178,3.075,4.71V94.677c0,6.542-1.308,10.467-6.542,10.467H.327A.309.309,0,0,1,0,104.817V53.137a.309.309,0,0,1,.327-.327H14.392c5.233,0,6.542,3.925,6.542,10.467ZM8.5,73.416h3.925V60.66H8.5Zm3.925,8.5H8.5V97.294h3.925Z" transform="translate(0 -40.085)" fill="#ef2f30"/>
    <path id="Trazado_37" data-name="Trazado 37" d="M119.063,82.9V97.294h8.177a.309.309,0,0,1,.327.327v7.2a.309.309,0,0,1-.327.327H110.886a.309.309,0,0,1-.327-.327V53.137a.309.309,0,0,1,.327-.327h15.7a.309.309,0,0,1,.327.327v7.2a.309.309,0,0,1-.327.327h-7.523V75.052h6.215a.309.309,0,0,1,.327.327v7.2a.309.309,0,0,1-.327.327Z" transform="translate(-83.919 -40.085)" fill="#ef2f30"/>
    <path id="Trazado_38" data-name="Trazado 38" d="M329.524,104.425a.312.312,0,0,1-.331-.331V51.888a.312.312,0,0,1,.331-.33h11.9c.2,0,.33.066.33.33L343.666,72.7h1.322L346.9,51.888c0-.264.133-.33.331-.33h11.9a.312.312,0,0,1,.33.33v52.206a.312.312,0,0,1-.33.331H351.2a.312.312,0,0,1-.33-.331V75.348h-1.322l-2.577,28.747c0,.264-.132.331-.331.331h-4.626c-.2,0-.33-.066-.33-.331l-2.577-28.747h-1.322v28.747a.312.312,0,0,1-.331.331Z" transform="translate(-249.87 -39.135)" fill="#232122"/>
    <rect id="Rect치ngulo_40" data-name="Rect치ngulo 40" width="8.591" height="52.867" rx="1.372" transform="translate(115.163 12.423)" fill="#232122"/>
    <path id="Trazado_39" data-name="Trazado 39" d="M537.045,104.425a.312.312,0,0,1-.331-.331V51.888a.312.312,0,0,1,.331-.33h7.93a.312.312,0,0,1,.331.33V96.495h7.6a.312.312,0,0,1,.331.331v7.269a.312.312,0,0,1-.331.331Z" transform="translate(-407.387 -39.135)" fill="#232122"/>
    <path id="Trazado_40" data-name="Trazado 40" d="M628.658,81.956V96.495h8.26a.312.312,0,0,1,.331.331v7.269a.312.312,0,0,1-.331.331H620.4a.312.312,0,0,1-.331-.331V51.888a.312.312,0,0,1,.331-.33h15.86a.312.312,0,0,1,.331.33v7.269a.312.312,0,0,1-.331.331h-7.6V74.026h6.278a.313.313,0,0,1,.331.331v7.269a.312.312,0,0,1-.331.331Z" transform="translate(-470.655 -39.135)" fill="#232122"/>
    <path id="Trazado_41" data-name="Trazado 41" d="M721.6,59.488H717.64V69.07a2.491,2.491,0,0,0,1.322,2.643l5.287,2.644c4.031,1.983,5.948,4.361,5.948,9.715v9.78c0,6.608-1.322,10.573-6.609,10.573h-7.93c-5.287,0-6.609-3.965-6.609-10.573V83.212a.312.312,0,0,1,.331-.33h7.93a.312.312,0,0,1,.331.33V96.495H721.6V84.269a2.493,2.493,0,0,0-1.322-2.644L715,78.982c-4.031-1.982-5.947-4.362-5.947-9.714V62.131c0-6.608,1.322-10.573,6.609-10.573h7.93c5.287,0,6.609,3.965,6.609,10.573v8a.312.312,0,0,1-.331.33h-7.93a.312.312,0,0,1-.331-.33Z" transform="translate(-538.196 -39.135)" fill="#232122"/>
    <path id="Trazado_42" data-name="Trazado 42" d="M228.346,0H220.81a1.024,1.024,0,0,0-1.024,1.024V32.787l-5.373-10.436V14.076a1.024,1.024,0,0,0-1.024-1.024h-7.536a1.024,1.024,0,0,0-1.024,1.024V64.035a1.024,1.024,0,0,0,1.024,1.024h7.536a1.024,1.024,0,0,0,1.024-1.024v-31.7l5.373,10.436v8.212a1.024,1.024,0,0,0,1.024,1.024h7.536a1.024,1.024,0,0,0,1.024-1.024V1.024A1.024,1.024,0,0,0,228.346,0" transform="translate(-155.473)" fill="#ef2f30"/>
    <path id="Trazado_43" data-name="Trazado 43" d="M331.9,10.154V3.762h-2.521V2.277h6.864V3.762h-2.521v6.392Z" transform="translate(-250.011 -1.728)" fill="#ef2f30"/>
    <path id="Trazado_44" data-name="Trazado 44" d="M375.429,10.153h-1.823V2.276h1.823Zm3.714-3.23h-3.849V5.382h3.849Zm-.135-4.648h1.823v7.877h-1.823Z" transform="translate(-283.582 -1.728)" fill="#ef2f30"/>
    <path id="Trazado_45" data-name="Trazado 45" d="M424.826,8.691h4.287v1.463h-6.1V2.276h5.953V3.739h-4.141Zm-.135-3.241h3.792V6.868h-3.792Z" transform="translate(-321.084 -1.728)" fill="#ef2f30"/>
    <path id="Trazado_46" data-name="Trazado 46" d="M490.918,10.154V2.277h3.41a4.432,4.432,0,0,1,1.823.343,2.674,2.674,0,0,1,1.182.985,2.752,2.752,0,0,1,.416,1.531,2.73,2.73,0,0,1-.416,1.519,2.672,2.672,0,0,1-1.182.985,4.428,4.428,0,0,1-1.823.343h-2.4l.81-.821v2.993Zm1.823-2.791-.81-.866h2.3a1.886,1.886,0,0,0,1.26-.36,1.254,1.254,0,0,0,.416-1,1.268,1.268,0,0,0-.416-1.013,1.887,1.887,0,0,0-1.26-.36h-2.3l.81-.866Z" transform="translate(-372.626 -1.728)" fill="#ef2f30"/>
    <path id="Trazado_47" data-name="Trazado 47" d="M539.044,9.864a4.8,4.8,0,0,1-1.727-.3,4.084,4.084,0,0,1-1.373-.855,3.9,3.9,0,0,1-.9-1.294,4.047,4.047,0,0,1-.321-1.621,4.045,4.045,0,0,1,.321-1.62,3.872,3.872,0,0,1,.906-1.294,4.164,4.164,0,0,1,1.373-.855,4.983,4.983,0,0,1,3.427,0,4.115,4.115,0,0,1,1.361.855,4.111,4.111,0,0,1,.906,4.541,3.9,3.9,0,0,1-.906,1.294,4.158,4.158,0,0,1-1.361.85,4.676,4.676,0,0,1-1.7.3m-.011-1.553a2.566,2.566,0,0,0,.974-.18,2.324,2.324,0,0,0,.782-.518,2.358,2.358,0,0,0,.523-.8A2.717,2.717,0,0,0,541.5,5.79a2.719,2.719,0,0,0-.186-1.024,2.411,2.411,0,0,0-.518-.8,2.267,2.267,0,0,0-.782-.518,2.618,2.618,0,0,0-.979-.18,2.573,2.573,0,0,0-.973.18,2.334,2.334,0,0,0-.782.518,2.361,2.361,0,0,0-.523.8,2.719,2.719,0,0,0-.186,1.024,2.73,2.73,0,0,0,.186,1.019,2.39,2.39,0,0,0,.518.8,2.253,2.253,0,0,0,.782.518,2.607,2.607,0,0,0,.979.18" transform="translate(-405.876 -1.303)" fill="#ef2f30"/>
    <path id="Trazado_48" data-name="Trazado 48" d="M587.869,10.154V2.277h3.578a4.992,4.992,0,0,1,2.262.49,3.735,3.735,0,0,1,1.53,1.367,3.83,3.83,0,0,1,.551,2.082,3.837,3.837,0,0,1-.551,2.076,3.722,3.722,0,0,1-1.53,1.373,5,5,0,0,1-2.262.489Zm1.823-1.5h1.666a2.954,2.954,0,0,0,1.367-.3,2.161,2.161,0,0,0,.9-.85,2.526,2.526,0,0,0,.321-1.294,2.518,2.518,0,0,0-.321-1.3,2.173,2.173,0,0,0-.9-.844,2.957,2.957,0,0,0-1.367-.3h-1.666Z" transform="translate(-446.216 -1.728)" fill="#ef2f30"/>
    <path id="Trazado_49" data-name="Trazado 49" d="M640.33,9.863a4.72,4.72,0,0,1-1.694-.3,3.935,3.935,0,0,1-2.251-2.144,4.068,4.068,0,0,1-.321-1.632,4.071,4.071,0,0,1,.321-1.632,3.909,3.909,0,0,1,.9-1.294,4.059,4.059,0,0,1,1.356-.849,5,5,0,0,1,3.551.056,3.606,3.606,0,0,1,1.39,1.041l-1.17,1.08a2.748,2.748,0,0,0-.9-.692,2.528,2.528,0,0,0-1.08-.231,2.769,2.769,0,0,0-1.013.18,2.3,2.3,0,0,0-.8.518,2.366,2.366,0,0,0-.523.8,2.724,2.724,0,0,0-.186,1.024,2.724,2.724,0,0,0,.186,1.024,2.36,2.36,0,0,0,.523.8,2.285,2.285,0,0,0,.8.518,2.759,2.759,0,0,0,1.013.18,2.528,2.528,0,0,0,1.08-.231,2.682,2.682,0,0,0,.9-.7l1.17,1.08a3.654,3.654,0,0,1-1.39,1.047,4.622,4.622,0,0,1-1.862.36" transform="translate(-482.798 -1.303)" fill="#ef2f30"/>
    <path id="Trazado_50" data-name="Trazado 50" d="M679.077,10.153l3.511-7.877h1.8l3.522,7.877H686L683.117,3.2h.72l-2.892,6.954Zm1.755-1.688.484-1.384h4.051l.5,1.384Z" transform="translate(-515.446 -1.728)" fill="#ef2f30"/>
    <path id="Trazado_51" data-name="Trazado 51" d="M731.459,9.863a6.433,6.433,0,0,1-1.812-.253,4.236,4.236,0,0,1-1.4-.658l.619-1.373a4.517,4.517,0,0,0,1.2.591,4.414,4.414,0,0,0,1.4.231,2.915,2.915,0,0,0,.872-.107,1.021,1.021,0,0,0,.49-.3.67.67,0,0,0,.158-.439.594.594,0,0,0-.248-.5,2.032,2.032,0,0,0-.653-.3q-.4-.118-.894-.225t-.979-.264a4.128,4.128,0,0,1-.895-.405,1.989,1.989,0,0,1-.658-.653,1.92,1.92,0,0,1-.253-1.035,2.2,2.2,0,0,1,.366-1.232,2.5,2.5,0,0,1,1.1-.889,4.519,4.519,0,0,1,1.851-.332,6.2,6.2,0,0,1,1.463.174,4.223,4.223,0,0,1,1.272.523L733.9,3.8a4.793,4.793,0,0,0-1.1-.467,4.062,4.062,0,0,0-1.081-.152,2.554,2.554,0,0,0-.866.124,1.022,1.022,0,0,0-.484.321.741.741,0,0,0-.147.456.582.582,0,0,0,.248.49,1.955,1.955,0,0,0,.653.3q.4.112.895.225t.979.259a3.81,3.81,0,0,1,.895.394,1.994,1.994,0,0,1,.658.653,1.9,1.9,0,0,1,.253,1.024,2.127,2.127,0,0,1-.372,1.215,2.591,2.591,0,0,1-1.108.889,4.482,4.482,0,0,1-1.862.338" transform="translate(-552.772 -1.303)" fill="#ef2f30"/>
    <path id="Trazado_52" data-name="Trazado 52" d="M770.655,10.154V3.762h-2.521V2.277H775V3.762h-2.521v6.392Z" transform="translate(-583.044 -1.728)" fill="#ef2f30"/>
  </g>
</svg>
