<svg xmlns="http://www.w3.org/2000/svg" width="17.638" height="20" viewBox="0 0 17.638 20">
  <path id="icons8_apple_logo" d="M16.125,1a5.34,5.34,0,0,0-3.264,1.528,3.4,3.4,0,0,0-1.042,2.917,4.467,4.467,0,0,0,3.264-1.458A3.661,3.661,0,0,0,16.125,1Zm.069,4.444c-1.809,0-2.566,1.111-3.819,1.111-1.289,0-2.468-1.042-4.028-1.042C6.225,5.514,3,7.48,3,12.111,3,16.324,6.817,21,8.972,21c1.309.013,1.627-.824,3.4-.833s2.161.844,3.472.833c1.476-.011,2.63-1.632,3.472-2.917a14.456,14.456,0,0,0,1.319-2.431c-3.473-.88-4.164-6.481,0-7.639A6.323,6.323,0,0,0,16.194,5.444Z" transform="translate(-3 -1)" fill="#fff"/>
</svg>
