<svg xmlns="http://www.w3.org/2000/svg" width="20" height="20" viewBox="0 0 20 20">
  <path id="icons8_spotify" d="M12,2A10,10,0,1,0,22,12,10.029,10.029,0,0,0,12,2Zm4.057,14.406c-.188,0-.282-.094-.47-.188A9.95,9.95,0,0,0,10.508,14.9a16.5,16.5,0,0,0-3.1.376,4.071,4.071,0,0,0-.47.094.643.643,0,0,1-.658-.658c0-.376.188-.658.564-.658a16.5,16.5,0,0,1,3.763-.47,11.941,11.941,0,0,1,5.832,1.505c.188.188.376.282.376.658C16.621,16.218,16.339,16.406,16.057,16.406Zm1.034-2.633a1.336,1.336,0,0,1-.564-.188,11.812,11.812,0,0,0-6.3-1.6,14.922,14.922,0,0,0-3.2.376.847.847,0,0,1-.47.094A.743.743,0,0,1,5.8,11.7c0-.47.188-.658.658-.847a14.563,14.563,0,0,1,3.857-.564,13.976,13.976,0,0,1,7.149,1.881.959.959,0,0,1,.47.753C17.844,13.4,17.562,13.773,17.091,13.773Zm1.223-3.011c-.188,0-.282-.094-.564-.188a15.822,15.822,0,0,0-7.243-1.693,18.179,18.179,0,0,0-3.951.47c-.188,0-.282.094-.564.094-.564.095-.941-.376-.941-.94a.862.862,0,0,1,.658-.941A19.747,19.747,0,0,1,10.507,7a18.468,18.468,0,0,1,8.278,1.881,1.1,1.1,0,0,1,.564.941A1.026,1.026,0,0,1,18.314,10.762Z" transform="translate(-2 -2)" fill="#fff"/>
</svg>
