<svg xmlns="http://www.w3.org/2000/svg" width="53.333" height="53.333" viewBox="0 0 53.333 53.333">
  <g id="Behance" style="mix-blend-mode: normal;isolation: isolate">
    <path id="Ellipse_3" data-name="Ellipse 3" d="M0,26.667A26.667,26.667,0,1,1,26.667,53.333,26.667,26.667,0,0,1,0,26.667Z" fill="rgba(255,255,255,0.05)" style="mix-blend-mode: normal;isolation: isolate"/>
    <g id="icons8_spotify_1" transform="translate(14.667 14.235)">
      <path id="Trazado_80" data-name="Trazado 80" d="M15.736,16.573c-.171,0-.257-.086-.428-.171a9.048,9.048,0,0,0-4.618-1.2,14.985,14.985,0,0,0-2.822.342,3.719,3.719,0,0,0-.428.086.585.585,0,0,1-.6-.6c0-.342.171-.6.513-.6a14.968,14.968,0,0,1,3.421-.428,10.865,10.865,0,0,1,5.3,1.368c.171.171.342.257.342.6C16.249,16.4,15.992,16.573,15.736,16.573Zm.941-2.415a1.222,1.222,0,0,1-.513-.171,10.741,10.741,0,0,0-5.73-1.454,13.572,13.572,0,0,0-2.908.342.769.769,0,0,1-.428.086.674.674,0,0,1-.684-.684c0-.428.171-.6.6-.77a13.213,13.213,0,0,1,3.507-.513,12.707,12.707,0,0,1,6.5,1.711.872.872,0,0,1,.428.684C17.361,13.816,17.1,14.158,16.677,14.158Zm1.111-2.737c-.171,0-.257-.086-.513-.171a14.391,14.391,0,0,0-6.586-1.539,16.492,16.492,0,0,0-3.592.428c-.171,0-.257.086-.513.086-.513.086-.855-.342-.855-.855a.783.783,0,0,1,.6-.855A17.834,17.834,0,0,1,10.69,8a16.788,16.788,0,0,1,7.526,1.711,1,1,0,0,1,.513.855A.932.932,0,0,1,17.788,11.421Z" fill="#fff"/>
      <path id="Trazado_81" data-name="Trazado 81" d="M12,3a9,9,0,1,0,9,9,9,9,0,0,0-9-9Z" fill="none" stroke="#fff" stroke-width="2"/>
    </g>
  </g>
</svg>
